<svg xmlns="http://www.w3.org/2000/svg" xmlns:xlink="http://www.w3.org/1999/xlink" viewBox="0 0 1114.52 306.17"><defs><style>.a{fill:none;}.b{font-size:250.68px;font-family:Montserrat-SemiBold, Montserrat;font-weight:600;}.b,.e{fill:#607d8b;}.c{letter-spacing:0.01em;}.d{clip-path:url(#a);}.f{fill:#8c52ff;}</style><clipPath id="a" transform="translate(-2.2)"><rect class="a" width="222.19" height="290.08"/></clipPath></defs><text class="b" transform="translate(274.5 239.74)">petif<tspan class="c" x="599.12" y="0">f</tspan><tspan x="694.12" y="0">y</tspan></text><g class="d"><path class="e" d="M2.2,284V6a6,6,0,0,1,6-6h148.3a5.89,5.89,0,0,1,4.21,1.77l56.69,56.85a5.89,5.89,0,0,1,1.77,4.21V284a6,6,0,0,1-6,6.05H8.23A6,6,0,0,1,2.2,284Zm204.94-6V72.52H152.9a6,6,0,0,1-6-6V12.09H14.26V278Z" transform="translate(-2.2)"/></g><path class="f" d="M177,120.87H44.39a6,6,0,0,1,0-12.09H177a6,6,0,0,1,0,12.09Zm-48.24,36.25H44.39a6,6,0,0,1,0-12.08h84.38a6,6,0,0,1,0,12.08Zm24.13,36.26H44.39a6,6,0,0,1,0-12.08H152.9a6,6,0,0,1,0,12.08Zm-48.24,36.26H44.39a6,6,0,0,1,0-12.08h60.27a6,6,0,0,1,0,12.08Z" transform="translate(-2.2)"/></svg>